<!--?xml version="1.0" standalone="no"?-->

<svg xmlns="http://www.w3.org/2000/svg" width="300.000000pt" height="272.000000pt" viewBox="0 0 300.000000 272.000000" preserveAspectRatio="xMidYMid meet">
<g transform="translate(0.000000,272.000000) scale(0.100000,-0.100000)" fill="#0D0D0D" stroke="none">
<path style="position: relative;" class="node" id="node1" d="M996 2701 c-13 -15 -16 -28 -11 -53 14 -70 115 -216 240 -348 67 -71
68 -92 7 -131 -25 -16 -51 -29 -57 -29 -12 0 -45 -32 -45 -43 0 -15 39 -6 85
19 42 22 50 23 63 11 19 -20 7 -56 -23 -67 -15 -6 -23 -16 -22 -30 1 -23 22
-27 30 -6 6 15 57 10 57 -6 0 -5 21 -6 49 -2 30 4 51 2 55 -4 10 -16 -11 -24
-73 -27 -31 -2 -64 -6 -73 -9 -10 -3 -25 -8 -33 -11 -8 -2 -12 -11 -9 -20 4
-10 0 -15 -15 -15 -57 0 -82 -89 -38 -134 13 -13 29 -25 37 -28 16 -5 4 -28
-15 -28 -15 0 -288 -89 -370 -120 -27 -10 -81 -31 -120 -46 -38 -14 -90 -35
-114 -46 l-44 -20 -71 48 c-39 26 -84 56 -101 68 -82 56 -328 218 -338 222
-15 5 -42 -35 -30 -46 4 -4 112 -76 238 -160 127 -84 232 -155 235 -157 3 -3
-3 -10 -13 -17 -28 -21 -20 -51 24 -91 34 -31 47 -36 76 -33 30 4 35 1 39 -21
13 -62 66 -86 158 -71 40 6 57 4 79 -8 32 -19 34 -28 7 -42 -11 -6 -31 -30
-45 -54 -22 -38 -25 -54 -25 -137 1 -148 50 -261 159 -366 l45 -43 -3 -111
c-4 -158 18 -186 102 -126 24 17 32 18 55 7 23 -10 240 -137 251 -146 2 -2 -4
-21 -13 -44 -9 -22 -16 -55 -16 -73 0 -43 21 -88 40 -85 8 2 35 31 60 66 25
34 54 64 66 68 13 3 82 -19 185 -59 190 -75 276 -103 286 -94 3 4 1 18 -5 31
-8 17 -17 23 -31 19 -23 -6 -43 24 -35 53 3 11 -5 35 -18 54 -30 45 -99 164
-151 260 -22 41 -44 80 -49 87 -18 22 8 20 102 -9 78 -25 110 -42 185 -97 142
-107 443 -279 464 -267 5 4 12 2 16 -4 4 -6 11 -7 17 -4 5 3 -14 20 -42 36
-29 16 -49 32 -46 35 3 3 35 -7 72 -21 36 -15 68 -25 71 -22 2 2 -26 22 -64
44 -50 30 -69 46 -69 61 0 16 5 20 21 16 11 -2 8 1 -7 7 -32 13 -37 28 -10 29
14 0 14 2 -3 9 -17 7 -17 9 -2 9 9 1 17 5 17 9 0 10 30 9 48 -2 7 -4 12 -2 12
4 0 7 7 9 16 6 13 -5 15 -2 11 14 -3 11 0 23 5 27 6 3 9 2 5 -3 -3 -5 7 -9 21
-10 15 0 41 -3 57 -7 36 -8 28 -5 -90 40 -49 18 -99 38 -110 43 -11 5 -74 30
-140 55 -314 120 -297 111 -384 191 -45 41 -85 74 -89 74 -4 0 -16 -13 -25
-30 -10 -16 -21 -30 -25 -30 -19 1 -162 113 -162 127 0 8 27 43 61 76 73 73
91 112 92 197 0 73 -15 110 -69 174 -39 45 -42 66 -14 84 21 13 90 19 106 9 6
-3 33 -43 61 -89 86 -140 185 -236 273 -267 19 -7 100 -16 180 -20 112 -6 157
-13 192 -29 50 -22 116 -84 156 -146 40 -63 111 -134 173 -172 59 -36 149 -68
175 -62 33 7 -361 435 -526 572 -107 89 -162 124 -252 162 -128 53 -231 130
-353 265 -33 37 -95 105 -137 152 -54 59 -87 87 -108 92 -16 4 -30 11 -30 16
0 10 50 89 56 89 2 0 41 -25 86 -56 164 -113 323 -171 358 -129 27 33 -22 146
-111 259 -22 27 -38 54 -36 60 2 7 47 12 118 14 112 3 131 1 339 -44 184 -39
385 -53 450 -31 29 10 36 18 38 44 3 25 -5 40 -34 72 -35 39 -157 133 -254
195 -25 16 -57 37 -71 47 -35 24 -199 105 -262 130 -168 67 -350 97 -483 79
-88 -11 -203 -48 -257 -80 l-31 -19 -45 33 c-131 96 -233 154 -330 187 -68 24
-84 24 -105 0z m332 -1353 c6 -7 12 -35 13 -63 3 -57 8 -55 -101 -36 -77 13
-200 14 -253 2 -30 -7 -41 -5 -60 10 -12 10 -20 18 -17 19 3 0 50 12 105 26
55 14 123 32 150 39 66 17 150 18 163 3z m342 -653 c45 -28 48 -39 21 -74
l-19 -25 -31 62 c-17 34 -27 62 -21 62 6 0 28 -11 50 -25z"></path>
<path style="position: relative;" class="node" id="node2" d="M2545 340 c3 -5 8 -10 11 -10 2 0 4 5 4 10 0 6 -5 10 -11 10 -5 0 -7
-4 -4 -10z"></path>
<path style="position: relative;" class="node" id="node3" d="M2458 323 c7 -3 16 -2 19 1 4 3 -2 6 -13 5 -11 0 -14 -3 -6 -6z"></path>
<path style="position: relative;" class="node" id="node4" d="M2450 240 c8 -5 20 -10 25 -10 6 0 3 5 -5 10 -8 5 -19 10 -25 10 -5
0 -3 -5 5 -10z"></path>
<path style="position: relative;" class="node" id="node5" d="M2577 139 c7 -7 15 -10 18 -7 3 3 -2 9 -12 12 -14 6 -15 5 -6 -5z"></path>
<path style="position: relative;" class="node" id="node6" d="M2520 111 c0 -5 7 -12 16 -15 24 -9 28 -7 14 9 -14 17 -30 20 -30 6z"></path>
<path style="position: relative;" class="node" id="node7" d="M1940 92 c0 -5 7 -16 16 -23 14 -12 16 -11 13 5 -4 20 -29 35 -29 18z"></path>
</g>
<g transform="translate(0.000000,272.000000) scale(0.100000,-0.100000)" fill="#A1A1A1" stroke="none">




</g>
</svg>